<mxfile host="app.diagrams.net" modified="2023-11-29T02:19:19.626Z" agent="Mozilla/5.0 (Windows NT 10.0; Win64; x64) AppleWebKit/537.36 (KHTML, like Gecko) Chrome/119.0.0.0 Safari/537.36 Edg/119.0.0.0" etag="jT53xtBYai1JOV9F_wug" version="22.1.4" type="github">
  <diagram id="prtHgNgQTEPvFCAcTncT" name="Page-1">
    <mxGraphModel dx="2328" dy="2516" grid="1" gridSize="10" guides="1" tooltips="1" connect="1" arrows="1" fold="1" page="1" pageScale="1" pageWidth="827" pageHeight="1169" math="0" shadow="0">
      <root>
        <mxCell id="0" />
        <mxCell id="1" parent="0" />
        <mxCell id="K0c-ipuWJj2QcTg4X9TD-34" style="edgeStyle=orthogonalEdgeStyle;rounded=0;orthogonalLoop=1;jettySize=auto;html=1;exitX=0.5;exitY=1;exitDx=0;exitDy=0;entryX=0.5;entryY=0;entryDx=0;entryDy=0;" edge="1" parent="1" source="K0c-ipuWJj2QcTg4X9TD-11" target="K0c-ipuWJj2QcTg4X9TD-5">
          <mxGeometry relative="1" as="geometry" />
        </mxCell>
        <mxCell id="K0c-ipuWJj2QcTg4X9TD-11" value="Start" style="ellipse;whiteSpace=wrap;html=1;" vertex="1" parent="1">
          <mxGeometry x="100" y="-20" width="80" height="80" as="geometry" />
        </mxCell>
        <mxCell id="K0c-ipuWJj2QcTg4X9TD-19" value="Customer" style="swimlane;startSize=20;horizontal=0;html=1;whiteSpace=wrap;" vertex="1" parent="1">
          <mxGeometry x="20" y="110" width="1820" height="240" as="geometry" />
        </mxCell>
        <mxCell id="K0c-ipuWJj2QcTg4X9TD-18" value="Select Fuel &lt;br&gt;Grade" style="whiteSpace=wrap;html=1;" vertex="1" parent="K0c-ipuWJj2QcTg4X9TD-19">
          <mxGeometry x="520" y="80" width="120" height="60" as="geometry" />
        </mxCell>
        <mxCell id="K0c-ipuWJj2QcTg4X9TD-43" style="edgeStyle=orthogonalEdgeStyle;rounded=0;orthogonalLoop=1;jettySize=auto;html=1;exitX=1;exitY=0.5;exitDx=0;exitDy=0;entryX=0;entryY=0.5;entryDx=0;entryDy=0;" edge="1" parent="K0c-ipuWJj2QcTg4X9TD-19" source="K0c-ipuWJj2QcTg4X9TD-21" target="K0c-ipuWJj2QcTg4X9TD-26">
          <mxGeometry relative="1" as="geometry" />
        </mxCell>
        <mxCell id="K0c-ipuWJj2QcTg4X9TD-21" value="Pump Gas" style="whiteSpace=wrap;html=1;" vertex="1" parent="K0c-ipuWJj2QcTg4X9TD-19">
          <mxGeometry x="820" y="80" width="120" height="60" as="geometry" />
        </mxCell>
        <mxCell id="K0c-ipuWJj2QcTg4X9TD-26" value="Hang up &lt;br&gt;gas hose&amp;nbsp;&lt;br&gt;" style="whiteSpace=wrap;html=1;" vertex="1" parent="K0c-ipuWJj2QcTg4X9TD-19">
          <mxGeometry x="1000" y="80" width="120" height="60" as="geometry" />
        </mxCell>
        <mxCell id="K0c-ipuWJj2QcTg4X9TD-5" value="Swipe&amp;nbsp;Card" style="rounded=0;whiteSpace=wrap;html=1;align=center;" vertex="1" parent="K0c-ipuWJj2QcTg4X9TD-19">
          <mxGeometry x="60" y="80" width="120" height="60" as="geometry" />
        </mxCell>
        <mxCell id="K0c-ipuWJj2QcTg4X9TD-20" value="System" style="swimlane;startSize=20;horizontal=0;html=1;whiteSpace=wrap;" vertex="1" parent="1">
          <mxGeometry x="20" y="350" width="1820" height="260" as="geometry" />
        </mxCell>
        <mxCell id="K0c-ipuWJj2QcTg4X9TD-36" style="edgeStyle=orthogonalEdgeStyle;rounded=0;orthogonalLoop=1;jettySize=auto;html=1;exitX=1;exitY=0.5;exitDx=0;exitDy=0;entryX=0;entryY=0.5;entryDx=0;entryDy=0;" edge="1" parent="K0c-ipuWJj2QcTg4X9TD-20" source="K0c-ipuWJj2QcTg4X9TD-12" target="K0c-ipuWJj2QcTg4X9TD-13">
          <mxGeometry relative="1" as="geometry" />
        </mxCell>
        <mxCell id="K0c-ipuWJj2QcTg4X9TD-12" value="Validate Card" style="whiteSpace=wrap;html=1;" vertex="1" parent="K0c-ipuWJj2QcTg4X9TD-20">
          <mxGeometry x="60" y="50" width="120" height="60" as="geometry" />
        </mxCell>
        <mxCell id="K0c-ipuWJj2QcTg4X9TD-37" style="edgeStyle=orthogonalEdgeStyle;rounded=0;orthogonalLoop=1;jettySize=auto;html=1;exitX=1;exitY=0.5;exitDx=0;exitDy=0;entryX=0;entryY=0.5;entryDx=0;entryDy=0;" edge="1" parent="K0c-ipuWJj2QcTg4X9TD-20" source="K0c-ipuWJj2QcTg4X9TD-13" target="K0c-ipuWJj2QcTg4X9TD-15">
          <mxGeometry relative="1" as="geometry" />
        </mxCell>
        <mxCell id="K0c-ipuWJj2QcTg4X9TD-38" style="edgeStyle=orthogonalEdgeStyle;rounded=0;orthogonalLoop=1;jettySize=auto;html=1;exitX=0.5;exitY=1;exitDx=0;exitDy=0;entryX=0.5;entryY=0;entryDx=0;entryDy=0;" edge="1" parent="K0c-ipuWJj2QcTg4X9TD-20" source="K0c-ipuWJj2QcTg4X9TD-13" target="K0c-ipuWJj2QcTg4X9TD-24">
          <mxGeometry relative="1" as="geometry" />
        </mxCell>
        <mxCell id="K0c-ipuWJj2QcTg4X9TD-13" value="Fund&lt;br&gt;&amp;gt;$75" style="rhombus;whiteSpace=wrap;html=1;" vertex="1" parent="K0c-ipuWJj2QcTg4X9TD-20">
          <mxGeometry x="220" y="40" width="80" height="80" as="geometry" />
        </mxCell>
        <mxCell id="K0c-ipuWJj2QcTg4X9TD-15" value="Store data" style="rounded=0;whiteSpace=wrap;html=1;" vertex="1" parent="K0c-ipuWJj2QcTg4X9TD-20">
          <mxGeometry x="340" y="50" width="120" height="60" as="geometry" />
        </mxCell>
        <mxCell id="K0c-ipuWJj2QcTg4X9TD-41" style="edgeStyle=orthogonalEdgeStyle;rounded=0;orthogonalLoop=1;jettySize=auto;html=1;exitX=0.5;exitY=1;exitDx=0;exitDy=0;entryX=0.5;entryY=0;entryDx=0;entryDy=0;" edge="1" parent="K0c-ipuWJj2QcTg4X9TD-20" source="K0c-ipuWJj2QcTg4X9TD-23" target="K0c-ipuWJj2QcTg4X9TD-25">
          <mxGeometry relative="1" as="geometry" />
        </mxCell>
        <mxCell id="K0c-ipuWJj2QcTg4X9TD-23" value="Fuel&lt;br&gt;Enough?" style="rhombus;whiteSpace=wrap;html=1;" vertex="1" parent="K0c-ipuWJj2QcTg4X9TD-20">
          <mxGeometry x="690" y="40" width="80" height="80" as="geometry" />
        </mxCell>
        <mxCell id="K0c-ipuWJj2QcTg4X9TD-24" value="Decline &amp;amp;&lt;br style=&quot;border-color: var(--border-color);&quot;&gt;Show Error" style="shape=parallelogram;perimeter=parallelogramPerimeter;whiteSpace=wrap;html=1;fixedSize=1;" vertex="1" parent="K0c-ipuWJj2QcTg4X9TD-20">
          <mxGeometry x="200" y="160" width="120" height="60" as="geometry" />
        </mxCell>
        <mxCell id="K0c-ipuWJj2QcTg4X9TD-25" value="Inform to select&amp;nbsp;&lt;br&gt;another grade" style="shape=parallelogram;perimeter=parallelogramPerimeter;whiteSpace=wrap;html=1;fixedSize=1;" vertex="1" parent="K0c-ipuWJj2QcTg4X9TD-20">
          <mxGeometry x="670" y="160" width="120" height="60" as="geometry" />
        </mxCell>
        <mxCell id="K0c-ipuWJj2QcTg4X9TD-45" style="edgeStyle=orthogonalEdgeStyle;rounded=0;orthogonalLoop=1;jettySize=auto;html=1;exitX=1;exitY=0.5;exitDx=0;exitDy=0;entryX=0;entryY=0.5;entryDx=0;entryDy=0;" edge="1" parent="K0c-ipuWJj2QcTg4X9TD-20" source="K0c-ipuWJj2QcTg4X9TD-27" target="K0c-ipuWJj2QcTg4X9TD-28">
          <mxGeometry relative="1" as="geometry" />
        </mxCell>
        <mxCell id="K0c-ipuWJj2QcTg4X9TD-27" value="Charge Customer&lt;br&gt;Card" style="whiteSpace=wrap;html=1;" vertex="1" parent="K0c-ipuWJj2QcTg4X9TD-20">
          <mxGeometry x="1170" y="50" width="120" height="60" as="geometry" />
        </mxCell>
        <mxCell id="K0c-ipuWJj2QcTg4X9TD-46" style="edgeStyle=orthogonalEdgeStyle;rounded=0;orthogonalLoop=1;jettySize=auto;html=1;exitX=1;exitY=0.5;exitDx=0;exitDy=0;entryX=0;entryY=0.5;entryDx=0;entryDy=0;" edge="1" parent="K0c-ipuWJj2QcTg4X9TD-20" source="K0c-ipuWJj2QcTg4X9TD-28" target="K0c-ipuWJj2QcTg4X9TD-29">
          <mxGeometry relative="1" as="geometry" />
        </mxCell>
        <mxCell id="K0c-ipuWJj2QcTg4X9TD-28" value="Save transactions&lt;br&gt;to DB" style="whiteSpace=wrap;html=1;" vertex="1" parent="K0c-ipuWJj2QcTg4X9TD-20">
          <mxGeometry x="1340" y="50" width="120" height="60" as="geometry" />
        </mxCell>
        <mxCell id="K0c-ipuWJj2QcTg4X9TD-47" style="edgeStyle=orthogonalEdgeStyle;rounded=0;orthogonalLoop=1;jettySize=auto;html=1;exitX=0.5;exitY=1;exitDx=0;exitDy=0;entryX=0.5;entryY=0;entryDx=0;entryDy=0;" edge="1" parent="K0c-ipuWJj2QcTg4X9TD-20" source="K0c-ipuWJj2QcTg4X9TD-29" target="K0c-ipuWJj2QcTg4X9TD-30">
          <mxGeometry relative="1" as="geometry" />
        </mxCell>
        <mxCell id="K0c-ipuWJj2QcTg4X9TD-49" style="edgeStyle=orthogonalEdgeStyle;rounded=0;orthogonalLoop=1;jettySize=auto;html=1;exitX=1;exitY=0.5;exitDx=0;exitDy=0;entryX=0;entryY=0.5;entryDx=0;entryDy=0;" edge="1" parent="K0c-ipuWJj2QcTg4X9TD-20" source="K0c-ipuWJj2QcTg4X9TD-29" target="K0c-ipuWJj2QcTg4X9TD-32">
          <mxGeometry relative="1" as="geometry" />
        </mxCell>
        <mxCell id="K0c-ipuWJj2QcTg4X9TD-29" value="User Want&lt;br&gt;Receipt?" style="rhombus;whiteSpace=wrap;html=1;" vertex="1" parent="K0c-ipuWJj2QcTg4X9TD-20">
          <mxGeometry x="1510" y="40" width="80" height="80" as="geometry" />
        </mxCell>
        <mxCell id="K0c-ipuWJj2QcTg4X9TD-30" value="Do not print receipt" style="whiteSpace=wrap;html=1;" vertex="1" parent="K0c-ipuWJj2QcTg4X9TD-20">
          <mxGeometry x="1490" y="150" width="120" height="60" as="geometry" />
        </mxCell>
        <mxCell id="K0c-ipuWJj2QcTg4X9TD-32" value="Print Receipt" style="whiteSpace=wrap;html=1;" vertex="1" parent="K0c-ipuWJj2QcTg4X9TD-20">
          <mxGeometry x="1634" y="50" width="120" height="60" as="geometry" />
        </mxCell>
        <mxCell id="K0c-ipuWJj2QcTg4X9TD-33" value="End" style="ellipse;whiteSpace=wrap;html=1;" vertex="1" parent="1">
          <mxGeometry x="1674" y="650" width="80" height="80" as="geometry" />
        </mxCell>
        <mxCell id="K0c-ipuWJj2QcTg4X9TD-35" style="edgeStyle=orthogonalEdgeStyle;rounded=0;orthogonalLoop=1;jettySize=auto;html=1;exitX=0.5;exitY=1;exitDx=0;exitDy=0;" edge="1" parent="1" source="K0c-ipuWJj2QcTg4X9TD-5" target="K0c-ipuWJj2QcTg4X9TD-12">
          <mxGeometry relative="1" as="geometry" />
        </mxCell>
        <mxCell id="K0c-ipuWJj2QcTg4X9TD-39" style="edgeStyle=orthogonalEdgeStyle;rounded=0;orthogonalLoop=1;jettySize=auto;html=1;exitX=1;exitY=0.5;exitDx=0;exitDy=0;entryX=0;entryY=0.5;entryDx=0;entryDy=0;" edge="1" parent="1" source="K0c-ipuWJj2QcTg4X9TD-15" target="K0c-ipuWJj2QcTg4X9TD-18">
          <mxGeometry relative="1" as="geometry" />
        </mxCell>
        <mxCell id="K0c-ipuWJj2QcTg4X9TD-40" style="edgeStyle=orthogonalEdgeStyle;rounded=0;orthogonalLoop=1;jettySize=auto;html=1;exitX=1;exitY=0.5;exitDx=0;exitDy=0;entryX=0;entryY=0.5;entryDx=0;entryDy=0;" edge="1" parent="1" source="K0c-ipuWJj2QcTg4X9TD-18" target="K0c-ipuWJj2QcTg4X9TD-23">
          <mxGeometry relative="1" as="geometry" />
        </mxCell>
        <mxCell id="K0c-ipuWJj2QcTg4X9TD-42" style="edgeStyle=orthogonalEdgeStyle;rounded=0;orthogonalLoop=1;jettySize=auto;html=1;exitX=1;exitY=0.5;exitDx=0;exitDy=0;entryX=0;entryY=0.5;entryDx=0;entryDy=0;" edge="1" parent="1" source="K0c-ipuWJj2QcTg4X9TD-23" target="K0c-ipuWJj2QcTg4X9TD-21">
          <mxGeometry relative="1" as="geometry" />
        </mxCell>
        <mxCell id="K0c-ipuWJj2QcTg4X9TD-44" style="edgeStyle=orthogonalEdgeStyle;rounded=0;orthogonalLoop=1;jettySize=auto;html=1;exitX=1;exitY=0.5;exitDx=0;exitDy=0;entryX=0;entryY=0.5;entryDx=0;entryDy=0;" edge="1" parent="1" source="K0c-ipuWJj2QcTg4X9TD-26" target="K0c-ipuWJj2QcTg4X9TD-27">
          <mxGeometry relative="1" as="geometry" />
        </mxCell>
        <mxCell id="K0c-ipuWJj2QcTg4X9TD-50" style="edgeStyle=orthogonalEdgeStyle;rounded=0;orthogonalLoop=1;jettySize=auto;html=1;exitX=0.5;exitY=1;exitDx=0;exitDy=0;entryX=0.5;entryY=0;entryDx=0;entryDy=0;" edge="1" parent="1" source="K0c-ipuWJj2QcTg4X9TD-32" target="K0c-ipuWJj2QcTg4X9TD-33">
          <mxGeometry relative="1" as="geometry" />
        </mxCell>
      </root>
    </mxGraphModel>
  </diagram>
</mxfile>
